<?xml version="1.0" encoding="utf-8"?>
<!DOCTYPE svg PUBLIC "-//W3C//DTD SVG 20010904//EN" "http://www.w3.org/TR/2001/REC-SVG-20010904/DTD/svg10.dtd">
<svg version="1.0" xmlns="http://www.w3.org/2000/svg" width="502pt" height="502pt" viewBox="0 0 502 502" preserveAspectRatio="xMidYMid meet">
<g fill="#4219E2FF">
<path d="M 373.63 340.29 C 373.33 339.31 372.61 332.23 372.01 324.57 C 370.29 302.45 365.20 282.54 358.91 273.38 C 351.92 263.19 342.12 256.72 303.00 236.49 C 288.43 228.95 273.12 220.86 269.00 218.50 C 259.15 212.87 254.40 211.20 252.80 212.80 C 251.08 214.52 252.26 215.40 263.59 220.82 C 269.04 223.43 288.97 233.42 307.88 243.03 L 342.26 260.50 L 337.88 261.18 C 335.47 261.55 314.07 262.39 290.32 263.04 L 247.15 264.22 L 228.82 249.39 C 218.75 241.24 203.30 228.69 194.50 221.50 C 166.60 198.70 133.76 172.51 126.06 166.91 L 118.62 161.50 L 122.78 161.19 C 127.44 160.85 131.02 161.32 163.00 166.47 C 175.38 168.46 201.03 172.53 220.00 175.51 C 264.29 182.45 262.82 182.14 269.66 185.99 C 290.58 197.76 380.80 255.91 384.54 260.05 C 386.97 262.73 385.98 262.93 369.18 263.24 L 354.85 263.50 L 357.84 267.63 C 364.68 277.06 367.81 285.49 372.06 305.97 C 373.72 313.96 375.94 322.07 376.98 324.00 C 378.03 325.93 379.85 329.47 381.04 331.88 L 383.20 336.25 L 380.85 338.52 C 377.50 341.76 374.30 342.54 373.63 340.29Z"/></g>
<g fill="#4219E2FF">
<path d="M 236.06 325.92 C 211.21 322.91 186.92 309.75 167.65 288.86 C 155.47 275.64 152.94 268.37 156.46 256.75 C 160.15 244.61 175.36 213.00 177.51 213.00 C 178.58 213.00 193.88 224.96 213.37 241.01 C 217.70 244.58 226.70 251.87 233.37 257.22 L 245.50 266.94 L 275.33 266.97 L 305.16 267.00 L 304.45 270.25 C 303.72 273.65 299.27 288.73 293.43 307.67 L 289.98 318.84 L 283.73 320.92 C 270.09 325.46 249.85 327.58 236.06 325.92Z"/></g>
</svg>
