<?xml version="1.0" encoding="utf-8"?>
<!DOCTYPE svg PUBLIC "-//W3C//DTD SVG 20010904//EN" "http://www.w3.org/TR/2001/REC-SVG-20010904/DTD/svg10.dtd">
<svg version="1.0" xmlns="http://www.w3.org/2000/svg" width="502pt" height="502pt" viewBox="0 0 502 502" preserveAspectRatio="xMidYMid meet">
<g fill="#4219E2FF">
<path d="M 307.50 260.60 C 306.95 260.39 303.98 259.70 300.90 259.07 C 291.98 257.24 288.24 251.81 292.96 247.54 C 295.11 245.59 296.80 245.72 306.13 248.55 C 314.01 250.95 320.28 249.92 324.69 245.51 C 327.46 242.74 328.00 241.46 328.00 237.67 L 328.00 233.14 L 322.99 236.51 C 313.17 243.12 301.74 241.84 293.06 233.16 C 287.15 227.25 285.00 221.32 285.00 210.98 C 285.00 194.50 295.47 183.00 310.48 183.00 C 316.10 183.00 323.69 185.72 326.07 188.59 C 327.05 189.76 327.53 189.45 328.87 186.75 C 330.11 184.28 331.25 183.43 333.62 183.20 C 339.90 182.59 340.00 183.06 340.00 213.92 C 340.00 232.03 339.60 242.88 338.86 245.10 C 335.83 254.15 327.28 259.77 315.40 260.53 C 311.60 260.77 308.05 260.80 307.50 260.60ZM 317.17 228.97 C 324.33 226.98 329.98 217.08 328.50 209.09 C 326.69 199.33 321.01 194.00 312.42 194.00 C 300.11 194.00 292.38 207.57 297.89 219.50 C 301.79 227.96 308.66 231.33 317.17 228.97Z"/></g>
<g fill="#9342DDFF">
<path d="M 327.00 338.46 C 313.43 334.25 305.72 316.81 310.36 300.84 C 312.30 294.17 318.66 286.51 324.46 283.88 C 330.92 280.95 339.59 281.37 346.40 284.95 C 351.27 287.51 352.00 287.67 352.00 286.15 C 352.00 283.50 354.04 282.00 357.64 282.00 C 363.68 282.00 364.00 283.44 364.00 310.72 C 364.00 333.67 363.89 335.11 362.00 337.00 C 360.90 338.10 359.20 339.00 358.22 339.00 C 355.80 339.00 352.00 336.21 352.00 334.44 C 352.00 332.48 351.39 332.61 347.68 335.36 C 341.37 340.05 335.12 340.98 327.00 338.46ZM 344.43 326.16 C 351.47 322.10 354.19 309.43 349.72 301.53 C 346.23 295.36 341.62 292.73 335.23 293.25 C 326.39 293.95 320.98 300.79 321.02 311.22 C 321.06 324.76 333.30 332.58 344.43 326.16Z"/></g>
<g fill="#4219E2FF">
<path d="M 178.99 240.07 C 171.38 237.75 165.33 232.25 161.87 224.50 C 158.84 217.70 158.74 205.50 161.68 198.95 C 168.22 184.32 182.87 178.83 196.40 185.95 C 200.12 187.91 202.00 188.46 202.00 187.60 C 202.00 185.55 205.42 183.00 208.17 183.00 C 213.72 183.00 214.00 184.38 214.00 211.33 C 214.00 234.67 213.89 236.11 212.00 238.00 C 210.90 239.10 209.10 240.00 208.00 240.00 C 205.94 240.00 202.58 237.25 201.81 234.93 C 201.49 233.97 200.44 234.30 197.94 236.17 C 192.00 240.58 185.25 241.97 178.99 240.07ZM 195.58 226.51 C 204.85 219.43 204.08 201.92 194.23 195.83 C 191.58 194.19 189.74 193.86 185.42 194.22 C 176.54 194.95 171.00 201.69 171.00 211.76 C 171.00 226.08 185.07 234.52 195.58 226.51Z"/></g>
<g fill="#9342DDFF">
<path d="M 132.00 337.00 C 130.11 335.11 130.00 333.67 130.00 310.57 C 130.00 289.70 130.23 285.91 131.57 284.57 C 134.97 281.17 142.00 283.82 142.00 288.50 C 142.00 290.23 142.14 290.22 144.25 288.28 C 149.14 283.78 153.36 282.01 159.18 282.00 C 162.31 282.00 165.98 282.42 167.34 282.94 C 170.37 284.09 173.87 287.68 175.14 290.93 L 176.08 293.35 L 179.14 289.65 C 183.47 284.39 188.69 282.00 195.81 282.00 C 203.00 282.00 207.55 284.64 210.50 290.51 C 212.27 294.04 212.54 296.89 212.82 315.14 C 213.14 335.70 213.13 335.79 210.85 337.39 C 207.79 339.54 205.42 339.42 203.00 337.00 C 201.16 335.16 201.00 333.67 201.00 318.47 C 201.00 296.46 199.54 292.99 190.32 293.00 C 185.65 293.01 180.29 296.11 178.98 299.57 C 178.44 300.98 178.00 309.24 178.00 317.93 C 178.00 332.40 177.83 333.95 175.93 336.37 C 173.34 339.66 170.62 339.71 167.45 336.55 C 165.03 334.13 165.00 333.85 165.00 316.47 L 165.00 298.85 L 162.08 295.92 C 156.80 290.65 146.83 292.63 143.52 299.61 C 142.36 302.05 142.00 306.59 142.00 318.90 C 142.00 333.67 141.83 335.17 140.00 337.00 C 138.90 338.10 137.10 339.00 136.00 339.00 C 134.90 339.00 133.10 338.10 132.00 337.00Z"/></g>
<g fill="#4219E2FF">
<path d="M 449.00 231.14 C 445.87 227.90 440.53 224.42 431.50 219.73 C 424.35 216.02 416.02 211.64 413.00 209.99 C 407.51 207.01 405.00 206.31 405.00 207.77 C 405.00 208.20 413.53 212.79 423.97 217.98 C 435.72 223.84 442.47 227.72 441.72 228.20 C 441.05 228.62 431.86 228.98 421.30 228.98 L 402.10 229.00 L 396.30 224.18 C 393.11 221.53 381.05 211.80 369.50 202.56 C 357.95 193.32 348.27 185.54 348.00 185.28 C 347.18 184.50 358.04 186.01 385.21 190.46 C 410.06 194.53 411.14 194.80 417.21 198.53 C 430.34 206.59 460.56 226.20 461.96 227.57 C 463.24 228.81 462.54 229.00 456.63 229.00 L 449.84 229.00 L 452.00 232.50 C 454.74 236.93 454.49 236.82 449.00 231.14Z"/></g>
<g fill="#4219E2FF">
<path d="M 394.00 255.69 C 385.69 253.81 379.44 250.34 372.31 243.68 C 364.70 236.55 362.58 232.96 363.32 228.39 C 363.96 224.46 371.52 208.00 372.69 208.00 C 373.14 208.00 379.93 213.17 387.78 219.50 L 402.06 231.00 L 415.15 231.00 C 427.12 231.00 428.19 231.15 427.76 232.75 C 427.50 233.71 426.03 238.85 424.48 244.17 L 421.67 253.85 L 417.59 254.86 C 410.45 256.62 399.77 257.00 394.00 255.69Z"/></g>
<g fill="#4219E2FF">
<path d="M 230.00 239.31 C 226.27 237.97 226.00 236.15 226.00 212.03 C 226.00 192.30 226.25 188.08 227.56 186.22 C 230.45 182.10 238.00 184.16 238.00 189.07 C 238.00 191.58 239.22 191.52 241.60 188.89 C 244.97 185.16 250.52 183.00 256.73 183.00 C 264.57 183.00 268.80 185.38 272.00 191.59 C 274.36 196.18 274.52 197.49 274.85 215.59 C 275.08 228.04 274.83 235.45 274.13 236.76 C 272.61 239.59 268.34 240.45 265.39 238.52 C 263.04 236.98 263.00 236.72 263.00 221.10 C 263.00 202.62 262.60 199.94 259.32 196.40 C 257.10 194.01 256.34 193.81 250.98 194.20 C 239.84 195.00 238.00 198.78 238.00 220.91 C 238.00 236.29 237.92 236.95 235.78 238.44 C 233.46 240.06 232.52 240.20 230.00 239.31Z"/></g>
<g fill="#9342DDFF">
<path d="M 239.75 338.46 C 237.14 337.63 233.45 335.38 231.55 333.48 C 226.21 328.14 225.00 322.52 225.00 302.97 C 225.00 288.10 225.20 286.13 226.83 284.65 C 229.39 282.34 234.66 282.50 235.96 284.93 C 236.54 286.02 237.00 293.40 237.01 301.68 C 237.01 317.57 237.92 322.92 241.12 325.90 C 245.62 330.09 255.30 329.18 258.64 324.24 C 260.23 321.90 260.57 318.85 261.00 303.21 C 261.54 283.49 261.67 283.05 267.10 283.02 C 268.52 283.01 270.47 283.86 271.42 284.92 C 272.97 286.62 273.12 288.91 272.83 305.75 L 272.50 324.66 L 269.49 329.53 C 264.09 338.25 251.20 342.13 239.75 338.46Z"/></g>
<g fill="#4219E2FF">
<path d="M 118.24 240.02 C 113.04 238.79 107.23 234.35 104.77 229.75 C 102.68 225.84 102.47 223.98 102.17 206.67 C 101.88 189.91 102.03 187.62 103.58 185.92 C 105.77 183.49 110.19 183.45 112.35 185.83 C 113.74 187.37 114.00 190.19 114.00 203.86 C 114.00 222.92 114.88 226.21 120.59 228.60 C 124.50 230.23 130.26 229.81 133.09 227.69 C 136.85 224.87 137.45 221.82 137.80 204.00 C 138.18 184.88 138.46 184.00 144.17 184.00 C 149.54 184.00 150.25 186.79 149.79 206.23 C 149.32 226.10 148.28 229.89 141.77 235.46 C 136.13 240.29 126.90 242.08 118.24 240.02Z"/></g>
<g fill="#9342DDFF">
<path d="M 68.50 338.53 C 65.75 337.74 63.16 337.07 62.75 337.04 C 62.34 337.02 60.20 335.37 58.00 333.38 C 53.46 329.28 52.57 324.84 55.93 323.04 C 59.22 321.28 61.49 321.86 66.49 325.75 C 70.91 329.20 71.82 329.50 77.73 329.50 C 84.70 329.50 87.00 327.98 87.00 323.37 C 87.00 320.29 84.19 318.56 73.35 314.95 C 62.91 311.47 59.37 309.13 57.38 304.36 C 52.48 292.63 61.80 281.99 76.95 282.01 C 85.74 282.02 93.27 285.41 95.67 290.43 C 97.26 293.77 97.25 294.06 95.52 295.98 C 93.34 298.39 89.75 298.61 87.95 296.43 C 85.64 293.66 81.22 292.00 76.12 292.00 C 70.60 292.00 68.00 293.73 68.00 297.42 C 68.00 300.83 70.84 302.78 80.31 305.88 C 90.38 309.18 93.38 310.97 96.10 315.30 C 98.73 319.49 98.29 327.38 95.17 331.76 C 90.56 338.24 78.27 341.36 68.50 338.53Z"/></g>
<g fill="#9342DDFF">
<path d="M 388.50 339.32 C 379.44 337.28 372.00 331.77 372.00 327.08 C 372.00 321.51 377.19 320.29 382.36 324.65 C 391.28 332.17 404.92 331.63 404.98 323.75 C 405.01 320.73 401.34 318.16 393.79 315.90 C 378.87 311.43 374.84 308.00 374.22 299.24 C 373.89 294.46 374.21 292.93 376.16 290.07 C 381.74 281.90 396.16 279.29 406.70 284.54 C 412.82 287.59 415.74 292.23 413.59 295.50 C 412.00 297.92 407.77 298.61 405.88 296.76 C 402.33 293.29 399.30 292.00 394.71 292.00 C 388.02 292.00 386.00 293.28 386.00 297.51 C 386.00 301.59 387.66 302.66 399.97 306.55 C 405.74 308.37 409.00 310.07 411.45 312.52 C 417.58 318.64 417.11 328.09 410.36 334.38 C 405.77 338.67 395.71 340.94 388.50 339.32Z"/></g>
<g fill="#9342DDFF">
<path d="M 288.00 337.00 C 286.08 335.08 286.00 333.67 286.00 300.00 C 286.00 266.33 286.08 264.92 288.00 263.00 C 290.50 260.50 294.17 260.43 296.35 262.83 C 297.82 264.46 298.00 268.54 298.00 300.27 L 298.00 335.89 L 295.78 337.44 C 292.79 339.54 290.40 339.40 288.00 337.00Z"/></g>
<g fill="#4219E2FF">
<path d="M 62.00 239.31 C 58.27 237.97 58.00 236.15 58.00 212.03 C 58.00 192.30 58.25 188.08 59.56 186.22 C 62.51 182.00 70.00 184.18 70.00 189.26 C 70.00 191.30 70.09 191.29 72.75 188.80 C 76.82 185.00 81.38 183.00 86.02 183.00 C 91.98 183.00 94.00 184.40 94.00 188.51 C 94.00 193.56 90.64 195.57 85.00 193.88 C 81.39 192.80 80.40 192.87 77.60 194.38 C 71.34 197.75 70.54 200.50 70.17 219.75 C 69.85 236.05 69.72 237.09 67.69 238.50 C 65.46 240.06 64.50 240.20 62.00 239.31Z"/></g>
<g fill="#9342DDFF">
<path d="M 108.00 337.00 C 106.11 335.11 106.00 333.67 106.00 311.22 C 106.00 291.32 106.25 287.08 107.56 285.22 C 109.60 282.30 115.46 282.12 116.96 284.93 C 117.60 286.12 118.00 296.40 118.00 311.38 C 118.00 335.57 117.97 335.91 115.78 337.44 C 112.79 339.54 110.40 339.40 108.00 337.00Z"/></g>
<g fill="#9342DDFF">
<path d="M 426.00 337.00 C 424.11 335.11 424.00 333.67 424.00 310.65 C 424.00 288.34 424.15 286.17 425.83 284.65 C 428.24 282.47 432.28 282.55 434.35 284.83 C 435.79 286.42 436.00 289.74 436.00 310.83 C 436.00 333.67 435.89 335.11 434.00 337.00 C 432.90 338.10 431.10 339.00 430.00 339.00 C 428.90 339.00 427.10 338.10 426.00 337.00Z"/></g>
<g fill="#9342DDFF">
<path d="M 107.20 273.80 C 106.54 273.14 106.00 270.88 106.00 268.78 C 106.00 264.18 108.82 262.37 114.39 263.41 C 117.42 263.98 118.01 264.56 118.55 267.43 C 119.54 272.69 117.74 275.00 112.66 275.00 C 110.32 275.00 107.86 274.46 107.20 273.80Z"/></g>
<g fill="#9342DDFF">
<path d="M 424.15 272.88 C 421.84 266.63 426.65 261.44 432.75 263.58 C 435.25 264.46 435.50 265.00 435.50 269.52 L 435.50 274.50 L 430.24 274.80 C 425.57 275.07 424.88 274.85 424.15 272.88Z"/></g>
<g fill="#B796EEFF">
<path d="M 298.45 299.50 C 298.45 280.25 298.58 272.52 298.75 282.31 C 298.91 292.11 298.91 307.86 298.75 317.31 C 298.58 326.77 298.45 318.75 298.45 299.50Z"/></g>
</svg>
